<svg width="100" height="105" viewBox="0 0 100 105" fill="none" xmlns="http://www.w3.org/2000/svg">
<rect y="5" width="100" height="100" rx="50" fill="#DAE2FF"/>
<path fill-rule="evenodd" clip-rule="evenodd" d="M65.0006 45C65.0006 53.2843 58.2849 60 50.0006 60C41.7163 60 35.0006 53.2843 35.0006 45C35.0006 36.7157 41.7163 30 50.0006 30C58.2849 30 65.0006 36.7157 65.0006 45ZM60.0006 45C60.0006 50.5228 55.5235 55 50.0006 55C44.4778 55 40.0006 50.5228 40.0006 45C40.0006 39.4772 44.4778 35 50.0006 35C55.5235 35 60.0006 39.4772 60.0006 45Z" fill="#0856CF"/>
<path d="M50.0006 67.5C33.8147 67.5 20.0238 77.071 14.7705 90.4801C16.0502 91.7509 17.3984 92.9529 18.8088 94.0801C22.7207 81.7692 34.9924 72.5 50.0006 72.5C65.0088 72.5 77.2806 81.7693 81.1924 94.0802C82.6029 92.9529 83.951 91.7509 85.2307 90.4802C79.9775 77.071 66.1866 67.5 50.0006 67.5Z" fill="#0856CF"/>
<circle cx="81.5" cy="17.5" r="17.5" fill="#0856CF"/>
<mask id="mask0_219_2796" style="mask-type:alpha" maskUnits="userSpaceOnUse" x="70" y="5" width="24" height="24">
<rect x="70" y="5" width="24" height="24" fill="white"/>
</mask>
<g mask="url(#mask0_219_2796)">
<path d="M89 13V11H87V9H89V7H91V9H93V11H91V13H89ZM73 27C72.45 27 71.9793 26.8043 71.588 26.413C71.196 26.021 71 25.55 71 25V13C71 12.45 71.196 11.9793 71.588 11.588C71.9793 11.196 72.45 11 73 11H76.15L78 9H84V11H78.875L77.05 13H73V25H89V16H91V25C91 25.55 90.8043 26.021 90.413 26.413C90.021 26.8043 89.55 27 89 27H73ZM81 23.5C82.25 23.5 83.3127 23.0627 84.188 22.188C85.0627 21.3127 85.5 20.25 85.5 19C85.5 17.75 85.0627 16.6873 84.188 15.812C83.3127 14.9373 82.25 14.5 81 14.5C79.75 14.5 78.6873 14.9373 77.812 15.812C76.9373 16.6873 76.5 17.75 76.5 19C76.5 20.25 76.9373 21.3127 77.812 22.188C78.6873 23.0627 79.75 23.5 81 23.5ZM81 21.5C80.3 21.5 79.7083 21.2583 79.225 20.775C78.7417 20.2917 78.5 19.7 78.5 19C78.5 18.3 78.7417 17.7083 79.225 17.225C79.7083 16.7417 80.3 16.5 81 16.5C81.7 16.5 82.2917 16.7417 82.775 17.225C83.2583 17.7083 83.5 18.3 83.5 19C83.5 19.7 83.2583 20.2917 82.775 20.775C82.2917 21.2583 81.7 21.5 81 21.5Z" fill="white"/>
</g>
</svg>
