<svg width="61" height="115" viewBox="0 0 61 115" fill="none" xmlns="http://www.w3.org/2000/svg">
<path d="M60.805 56.6347C60.805 39.8438 47.1933 0 30.4025 0C13.6117 0 1.25009e-06 39.8438 1.25009e-06 56.6347C-0.00114383 60.6279 0.784387 64.5823 2.31174 68.2719C3.8391 71.9615 6.07835 75.3141 8.9016 78.1381C11.7248 80.9622 15.0768 83.2024 18.7659 84.7308C22.4551 86.2592 26.4092 87.0459 30.4025 87.0459C34.3957 87.0459 38.3499 86.2592 42.039 84.7308C45.7282 83.2024 49.0801 80.9622 51.9034 78.1381C54.7266 75.3141 56.9659 71.9615 58.4932 68.2719C60.0206 64.5823 60.8061 60.6279 60.805 56.6347Z" fill="#6C63FF"/>
<path d="M30.5 115C30.6326 115 30.7598 114.981 30.8536 114.947C30.9473 114.913 31 114.866 31 114.818V25.1817C31 25.1335 30.9473 25.0873 30.8536 25.0532C30.7598 25.0191 30.6326 25 30.5 25C30.3674 25 30.2402 25.0191 30.1465 25.0532C30.0527 25.0873 30 25.1335 30 25.1817V114.818C30 114.866 30.0527 114.913 30.1465 114.947C30.2402 114.981 30.3674 115 30.5 115Z" fill="#3F3D56"/>
<path d="M30.4025 45.7685C30.4353 45.7685 30.4679 45.7621 30.4982 45.7495C30.5286 45.737 30.5561 45.7185 30.5793 45.6952L42.6126 33.6621C42.659 33.6151 42.6849 33.5516 42.6847 33.4856C42.6845 33.4195 42.6582 33.3562 42.6115 33.3095C42.5648 33.2628 42.5015 33.2365 42.4355 33.2363C42.3694 33.2361 42.3059 33.2621 42.259 33.3085L30.2257 45.3418C30.1908 45.3767 30.167 45.4213 30.1573 45.4697C30.1477 45.5182 30.1526 45.5685 30.1716 45.6142C30.1905 45.6599 30.2225 45.6989 30.2636 45.7264C30.3047 45.7538 30.3531 45.7685 30.4025 45.7685V45.7685Z" fill="#3F3D56"/>
<path d="M30.4025 66.6004C30.4519 66.6004 30.5003 66.5858 30.5414 66.5583C30.5825 66.5308 30.6145 66.4918 30.6334 66.4461C30.6524 66.4005 30.6573 66.3502 30.6477 66.3017C30.638 66.2532 30.6142 66.2087 30.5793 66.1737L10.4274 46.0217C10.3804 45.9754 10.317 45.9495 10.251 45.9497C10.185 45.9499 10.1217 45.9763 10.0751 46.0229C10.0284 46.0696 10.0021 46.1328 10.0018 46.1988C10.0016 46.2648 10.0275 46.3282 10.0738 46.3752L30.2257 66.5272C30.2489 66.5505 30.2765 66.5689 30.3068 66.5815C30.3371 66.594 30.3696 66.6005 30.4025 66.6004Z" fill="#3F3D56"/>
</svg>
