<svg width="31" height="58" viewBox="0 0 31 58" fill="none" xmlns="http://www.w3.org/2000/svg">
<path d="M30.405 28.3197C30.405 19.9235 23.5986 0 15.2025 0C6.80639 0 6.25096e-07 19.9235 6.25096e-07 28.3197C-0.000571961 30.3164 0.392226 32.2938 1.15597 34.1387C1.91971 35.9837 3.03943 37.6601 4.45117 39.0723C5.8629 40.4844 7.53901 41.6046 9.38375 42.3689C11.2285 43.1332 13.2057 43.5265 15.2025 43.5265C17.1993 43.5265 19.1765 43.1332 21.0213 42.3689C22.866 41.6046 24.5421 40.4844 25.9538 39.0723C27.3656 37.6601 28.4853 35.9837 29.249 34.1387C30.0128 32.2938 30.4056 30.3164 30.405 28.3197Z" fill="#B2C5FF"/>
<path d="M15.2512 57.5047C15.3176 57.5047 15.3812 57.4951 15.428 57.4781C15.4749 57.461 15.5013 57.4379 15.5013 57.4138V12.5918C15.5013 12.5677 15.4749 12.5446 15.428 12.5276C15.3812 12.5105 15.3176 12.501 15.2512 12.501C15.1849 12.501 15.1213 12.5105 15.0745 12.5276C15.0276 12.5446 15.0012 12.5677 15.0012 12.5918V57.4138C15.0012 57.4379 15.0276 57.461 15.0745 57.4781C15.1213 57.4951 15.1849 57.5047 15.2512 57.5047Z" fill="#3F3D56"/>
<path d="M15.2025 22.8862C15.2189 22.8863 15.2352 22.883 15.2504 22.8767C15.2655 22.8705 15.2793 22.8612 15.2909 22.8496L21.308 16.8325C21.3313 16.809 21.3442 16.7773 21.3441 16.7443C21.344 16.7112 21.3309 16.6796 21.3075 16.6562C21.2842 16.6329 21.2525 16.6197 21.2195 16.6196C21.1865 16.6195 21.1547 16.6325 21.1312 16.6557L15.1141 22.6728C15.0966 22.6903 15.0847 22.7126 15.0799 22.7368C15.0751 22.7611 15.0776 22.7862 15.087 22.8091C15.0965 22.8319 15.1125 22.8514 15.1331 22.8652C15.1536 22.8789 15.1778 22.8862 15.2025 22.8862V22.8862Z" fill="#3F3D56"/>
<path d="M15.2025 33.303C15.2272 33.303 15.2514 33.2957 15.272 33.282C15.2925 33.2682 15.3085 33.2487 15.318 33.2259C15.3275 33.203 15.3299 33.1779 15.3251 33.1536C15.3203 33.1294 15.3084 33.1071 15.2909 33.0896L5.21414 23.0128C5.19064 22.9896 5.15893 22.9767 5.12593 22.9768C5.09293 22.9769 5.06131 22.9901 5.03797 23.0134C5.01463 23.0368 5.00146 23.0684 5.00134 23.1014C5.00123 23.1344 5.01417 23.1661 5.03734 23.1896L15.1141 33.2664C15.1257 33.278 15.1395 33.2872 15.1547 33.2935C15.1698 33.2998 15.1861 33.303 15.2025 33.303Z" fill="#3F3D56"/>
</svg>
