<svg width="24" height="24" viewBox="0 0 24 24" fill="none" xmlns="http://www.w3.org/2000/svg">
<mask id="mask0_205_7468" style="mask-type:alpha" maskUnits="userSpaceOnUse" x="0" y="0" width="24" height="24">
<rect width="24" height="24" fill="#45464F"/>
</mask>
<g mask="url(#mask0_205_7468)">
<path d="M12 22C10.6167 22 9.31667 21.7373 8.1 21.212C6.88333 20.6873 5.825 19.975 4.925 19.075C4.025 18.175 3.31267 17.1167 2.788 15.9C2.26267 14.6833 2 13.3833 2 12C2 10.6167 2.26267 9.31667 2.788 8.1C3.31267 6.88333 4.025 5.825 4.925 4.925C5.825 4.025 6.88333 3.31233 8.1 2.787C9.31667 2.26233 10.6167 2 12 2C12.7167 2 13.4083 2.07067 14.075 2.212C14.7417 2.354 15.3833 2.55833 16 2.825V5.075C15.4167 4.74167 14.7877 4.479 14.113 4.287C13.4377 4.09567 12.7333 4 12 4C9.78333 4 7.896 4.779 6.338 6.337C4.77933 7.89567 4 9.78333 4 12C4 14.2167 4.77933 16.1043 6.338 17.663C7.896 19.221 9.78333 20 12 20C14.2167 20 16.1043 19.221 17.663 17.663C19.221 16.1043 20 14.2167 20 12C20 11.4667 19.9457 10.95 19.837 10.45C19.729 9.95 19.5833 9.46667 19.4 9H21.55C21.7 9.48333 21.8127 9.97067 21.888 10.462C21.9627 10.954 22 11.4667 22 12C22 13.3833 21.7373 14.6833 21.212 15.9C20.6873 17.1167 19.975 18.175 19.075 19.075C18.175 19.975 17.1167 20.6873 15.9 21.212C14.6833 21.7373 13.3833 22 12 22ZM20 7V5H18V3H20V1H22V3H24V5H22V7H20ZM15.5 11C15.9167 11 16.2707 10.854 16.562 10.562C16.854 10.2707 17 9.91667 17 9.5C17 9.08333 16.854 8.72933 16.562 8.438C16.2707 8.146 15.9167 8 15.5 8C15.0833 8 14.7293 8.146 14.438 8.438C14.146 8.72933 14 9.08333 14 9.5C14 9.91667 14.146 10.2707 14.438 10.562C14.7293 10.854 15.0833 11 15.5 11ZM8.5 11C8.91667 11 9.27067 10.854 9.562 10.562C9.854 10.2707 10 9.91667 10 9.5C10 9.08333 9.854 8.72933 9.562 8.438C9.27067 8.146 8.91667 8 8.5 8C8.08333 8 7.72933 8.146 7.438 8.438C7.146 8.72933 7 9.08333 7 9.5C7 9.91667 7.146 10.2707 7.438 10.562C7.72933 10.854 8.08333 11 8.5 11ZM12 17.5C13.1333 17.5 14.1627 17.1793 15.088 16.538C16.0127 15.896 16.6833 15.05 17.1 14H6.9C7.31667 15.05 7.98767 15.896 8.913 16.538C9.83767 17.1793 10.8667 17.5 12 17.5Z" fill="#45464F"/>
</g>
</svg>
