<svg width="24" height="24" viewBox="0 0 24 24" fill="none" xmlns="http://www.w3.org/2000/svg">
<mask id="mask0_223_7843" style="mask-type:alpha" maskUnits="userSpaceOnUse" x="0" y="0" width="24" height="24">
<rect width="24" height="24" fill="#45464F"/>
</mask>
<g mask="url(#mask0_223_7843)">
<path d="M2.17505 10.1C2.60838 7.76667 3.73738 5.83333 5.56205 4.3C7.38738 2.76667 9.53338 2 12 2C13.2334 2 14.396 2.2 15.488 2.6C16.5794 3 17.5584 3.56667 18.425 4.3C18.1917 4.73333 18.0044 5.104 17.863 5.412C17.721 5.72067 17.625 6.00833 17.575 6.275C16.8417 5.575 16 5.02067 15.05 4.612C14.1 4.204 13.0834 4 12 4C10.3167 4 8.80838 4.47067 7.47505 5.412C6.14172 6.354 5.17505 7.55833 4.57505 9.025C4.12505 9.00833 3.68772 9.09167 3.26305 9.275C2.83772 9.45833 2.47505 9.73333 2.17505 10.1ZM12 22C9.53338 22 7.38738 21.2333 5.56205 19.7C3.73738 18.1667 2.60838 16.2333 2.17505 13.9C2.45838 14.2667 2.81238 14.546 3.23705 14.738C3.66238 14.9293 4.10838 15.0167 4.57505 15C5.17505 16.4667 6.14172 17.6667 7.47505 18.6C8.80838 19.5333 10.3167 20 12 20C14.2167 20 16.1044 19.221 17.663 17.663C19.221 16.1043 20 14.2167 20 12C20 11.7167 19.9874 11.4333 19.962 11.15C19.9374 10.8667 19.8917 10.5833 19.8251 10.3C20.0084 10.3667 20.1961 10.4167 20.3881 10.45C20.5794 10.4833 20.7834 10.5 21 10.5C21.15 10.5 21.3001 10.4917 21.4501 10.475C21.6 10.4583 21.7417 10.4333 21.875 10.4C21.9084 10.6667 21.9374 10.9293 21.962 11.188C21.9874 11.446 22 11.7167 22 12C22 13.3833 21.7374 14.6833 21.212 15.9C20.6874 17.1167 19.975 18.175 19.0751 19.075C18.1751 19.975 17.1167 20.6873 15.9 21.212C14.6834 21.7373 13.3834 22 12 22ZM8.40005 11.6L10.5 9.5L8.37505 7.375L7.32505 8.425L8.40005 9.475L7.32505 10.55L8.40005 11.6ZM21 9C20.4501 9 19.979 8.804 19.587 8.412C19.1957 8.02067 19 7.55 19 7C19 6.55 19.125 6.07067 19.375 5.562C19.625 5.054 20.1667 4.2 21 3C21.8334 4.2 22.375 5.054 22.625 5.562C22.875 6.07067 23 6.55 23 7C23 7.55 22.8044 8.02067 22.413 8.412C22.021 8.804 21.55 9 21 9ZM15.625 11.625L16.7 10.55L15.625 9.475L16.675 8.425L15.625 7.375L13.5 9.5L15.625 11.625ZM12 13.5C11.5667 13.5 11.146 13.55 10.738 13.65C10.3294 13.75 9.94172 13.8917 9.57505 14.075L6.00005 12C6.00005 11.7333 5.93338 11.4833 5.80005 11.25C5.66672 11.0167 5.48338 10.8333 5.25005 10.7C4.88338 10.5 4.50438 10.454 4.11305 10.562C3.72105 10.6707 3.41672 10.9 3.20005 11.25C3.00005 11.6167 2.95405 11.9957 3.06205 12.387C3.17072 12.779 3.40005 13.0833 3.75005 13.3C3.98338 13.4333 4.23338 13.5 4.50005 13.5C4.76672 13.5 5.01672 13.4333 5.25005 13.3L8.22505 15.025C7.94172 15.3083 7.68772 15.6127 7.46305 15.938C7.23772 16.2627 7.05005 16.6167 6.90005 17H8.55005C8.90005 16.4 9.37505 15.9167 9.97505 15.55C10.575 15.1833 11.25 15 12 15C12.75 15 13.425 15.1833 14.025 15.55C14.625 15.9167 15.1 16.4 15.45 17H17.1C16.7 15.9667 16.0457 15.125 15.137 14.475C14.229 13.825 13.1834 13.5 12 13.5Z" fill="#45464F"/>
</g>
</svg>
